{"title":"Return of the Living Dead Part II (1988)","uid":5854875,"size":735179555,"categoryP":"video","categoryS":"movies","magnet":"?xt=urn:btih:e9481a819d1aca64713ea294b83bf1fea28d6b03&amp;dn=Return+of+the+Living+Dead+Part+II+%281988%29&amp;tr=udp%3A%2F%2Ftracker.openbittorrent.com%3A80&amp;tr=udp%3A%2F%2Fopen.demonii.com%3A1337&amp;tr=udp%3A%2F%2Ftracker.coppersurfer.tk%3A6969&amp;tr=udp%3A%2F%2Fexodus.desync.com%3A6969","seeders":5,"leechers":3,"uploader":".BONE.","files":8,"time":1285564485,"description":"Video\nID : 0\nFormat : MPEG-4 Visual\nFormat profile : Advanced Simple@L5\nFormat settings, BVOP : Yes\nFormat settings, QPel : No\nFormat settings, GMC : No warppoints\nFormat settings, Matrix : Custom\nCodec ID : XVID\nCodec ID/Hint : XviD\nDuration : 1h 29mn\nBit rate : 970 Kbps\nWidth : 672 pixels\nHeight : 384 pixels\nDisplay aspect ratio : 16:9\nFrame rate : 23.976 fps\nColor space : YUV\nChroma subsampling : 4:2:0\nBit depth : 8 bits\nScan type : Progressive\nBits/(Pixel*Frame) : 0.157\nStream size : 620 MiB (88%)\nWriting library : XviD 1.2.1 (UTC 2008-12-04)\n\nAudio\nID : 1\nFormat : MPEG Audio\nFormat version : Version 1\nFormat profile : Layer 3\nMode : Joint stereo\nCodec ID : 55\nCodec ID/Hint : MP3\nDuration : 1h 29mn\nBit rate mode : Variable\nBit rate : 112 Kbps\nChannel(s) : 2 channels\nSampling rate : 48.0 KHz\nStream size : 72.7 MiB (10%)\nAlignment : Aligned on interleaves\nInterleave, duration : 24 ms (0.58 video frame)\nInterleave, preload duration : 141 ms\nWriting library : LAME3.98.2\nLanguage : English\n &lt;a href=&quot;\nhttp://www.imdb.com/title/tt0095990/&quot; rel=&quot;nofollow&quot; target=&quot;_NEW&quot;&gt;\nhttp://www.imdb.com/title/tt0095990/&lt;/a&gt;","torrent":{"xt":"urn:btih:e9481a819d1aca64713ea294b83bf1fea28d6b03","amp;dn":"Return+of+the+Living+Dead+Part+II+%281988%29","amp;tr":["udp%3A%2F%2Ftracker.openbittorrent.com%3A80","udp%3A%2F%2Fopen.demonii.com%3A1337","udp%3A%2F%2Ftracker.coppersurfer.tk%3A6969","udp%3A%2F%2Fexodus.desync.com%3A6969"],"infoHash":"e9481a819d1aca64713ea294b83bf1fea28d6b03","infoHashBuffer":{"type":"Buffer","data":[233,72,26,129,157,26,202,100,113,62,162,148,184,59,241,254,162,141,107,3]},"announce":[],"urlList":[]}}